<svg width="64" height="64" xmlns="http://www.w3.org/2000/svg">
 <g id="Layer_1">
  <title>Layer 1</title>
  <rect id="svg_4" height="67.9868" width="66.66667" y="-2.5434" x="-1.00331" stroke="#000" fill="#ff0f0f"/>
  <path id="svg_1" d="m60.69116,50.91034l-7.87315,-13.63346c-2.37373,-4.10909 -6.25628,-10.83599 -8.63002,-14.94588l-7.87241,-13.63263c-2.37608,-4.1115 -6.25863,-4.1115 -8.63157,0l-7.87082,13.63263c-2.37373,4.10988 -6.25864,10.83835 -8.63159,14.94588l-7.87162,13.63346c-2.37372,4.11305 -0.43085,7.47491 4.3158,7.47491l48.74486,0c4.7514,0 6.69186,-3.36186 4.32051,-7.47491l0,0zm-26.44324,2.11056l-4.66954,0l0,-4.4827l4.66954,0l0,4.4827zm-0.22497,-7.78573l-4.21562,0l-0.41895,-19.17983l5.01613,0l-0.38156,19.17983l0,0z" stroke="#000" fill="#fff"/>
 </g>
</svg>