<svg width="1152" height="648" xmlns="http://www.w3.org/2000/svg" style="vector-effect: non-scaling-stroke;" stroke="null">
 <g stroke="null">
  <title stroke="null">Layer 1</title>
  <rect transform="rotate(-45 295.874 409.207)" stroke="#fff" id="svg_2" height="106" width="716.99998" y="332.45711" x="240.62415" fill="none"/>
  <rect stroke="#005600" id="svg_3" height="2" width="2" y="440.45711" x="244.62415" fill="none"/>
  <rect transform="rotate(-45 -105.301 438.618)" stroke="null" id="svg_5" height="53" width="931.37821" y="559.11879" x="-132.99024" fill="#005600"/>
  <rect transform="rotate(-45 665.293 295.401)" stroke="null" id="svg_6" height="53" width="1050.33816" y="268.9008" x="140.12377" fill="#005600"/>
  <path transform="rotate(-45 844.75 683.47)" id="svg_7" d="m557.06135,769.97062l931.37817,0l0,53l-931.37817,0l0,-53z" opacity="undefined" stroke="null" fill="#005600"/>
  <path transform="rotate(-45 484.581 339.458)" stroke="null" id="svg_8" d="m-18.95886,312.95842l1007.07992,0l0,53l-1007.07992,0l0,-53z" opacity="undefined" fill="#005600"/>
  <rect transform="rotate(-45 791.461 313.619)" stroke="null" id="svg_9" height="53" width="995.43358" y="287.11902" x="293.74432" fill="#005600"/>
  <rect transform="rotate(-45 351.935 330.646)" stroke="null" id="svg_10" height="53" width="981.29149" y="304.14603" x="-138.71041" fill="#005600"/>
  <rect transform="rotate(-45 608.814 644.5)" stroke="null" id="svg_11" height="53" width="931.37821" y="820.00052" x="672.12528" fill="#005600"/>
  <rect transform="rotate(-45 255.874 609.206)" stroke="null" id="svg_12" height="53" width="931.37821" y="851.70652" x="399.18515" fill="#005600"/>
  <path transform="rotate(-45 277.051 660.971)" id="svg_13" d="m511.36157,955.47107l931.37817,0l0,53l-931.37817,0l0,-53z" opacity="undefined" stroke="null" fill="#005600"/>
  <path transform="rotate(-45 191.288 281.208)" id="svg_14" d="m-274.40149,254.70805l931.37817,0l0,53l-931.37817,0l0,-53z" opacity="undefined" stroke="null" fill="#007200"/>
  <rect transform="rotate(-45 378.227 558.618)" stroke="null" id="svg_15" height="53" width="931.37821" y="802.11843" x="445.53773" fill="#007200"/>
  <path transform="rotate(-45 314.698 680.971)" id="svg_16" d="m468.00852,986.47101l931.37817,0l0,53l-931.37817,0l0,-53z" opacity="undefined" stroke="null" fill="#007200"/>
  <rect transform="rotate(-45 531.811 690.86)" stroke="null" id="svg_18" height="53" width="931.37821" y="1046.3603" x="776.12151" fill="#007200"/>
  <rect transform="rotate(-45 382.933 736.265)" stroke="null" id="svg_19" height="53" width="931.37821" y="1059.76494" x="712.2436" fill="#007200"/>
  <rect transform="rotate(-45 442.795 308.762)" stroke="null" id="svg_20" height="53" width="1165.13872" y="282.26222" x="-139.77452" fill="#007200"/>
  <path id="svg_21" d="m-246.78459,320.58823l1026.2135,0l0,53l-1026.2135,0l0,-53z" transform="rotate(-45 266.322 347.088)" opacity="undefined" stroke="null" fill="#007200"/>
  <path transform="rotate(-45 712.757 322.09)" stroke="null" id="svg_22" d="m205.05717,295.59034l1015.39887,0l0,53l-1015.39887,0l0,-53z" opacity="undefined" fill="#007200"/>
  <rect transform="rotate(-45 835.562 343.401)" stroke="null" id="svg_24" height="53" width="952.17537" y="316.9006" x="359.47448" fill="#007200"/>
  <rect transform="rotate(-45 585.258 307.668)" stroke="null" id="svg_25" height="53" width="1016.23074" y="281.16812" x="77.143" fill="#007200"/>
  <rect transform="rotate(-45 -188.83 383.324)" stroke="null" id="svg_28" height="53" width="931.37821" y="503.82484" x="-216.5194" fill="#005600"/>
  <path transform="rotate(-45 101.876 229.443)" id="svg_29" d="m-363.81299,202.9435l931.37817,0l0,53l-931.37817,0l0,-53z" opacity="undefined" stroke="null" fill="#007200"/>
  <rect transform="rotate(-45 -280.594 332.736)" stroke="null" id="svg_30" height="53" width="931.37821" y="453.23676" x="-308.28383" fill="#005600"/>
  <path transform="rotate(-45 19.5233 167.09)" id="svg_31" d="m-446.16568,140.59075l931.37817,0l0,53l-931.37817,0l0,-53z" opacity="undefined" stroke="null" fill="#007200"/>
  <rect transform="rotate(-45 -364.123 271.56)" stroke="null" id="svg_32" height="53" width="931.37821" y="392.06047" x="-391.81299" fill="#005600"/>
  <path transform="rotate(-45 -55.7706 98.8549)" id="svg_33" d="m-521.45957,72.35566l931.37817,0l0,53l-931.37817,0l0,-53z" opacity="undefined" stroke="null" fill="#007200"/>
  <rect transform="rotate(-45 -437.064 203.325)" stroke="null" id="svg_34" height="53" width="931.37821" y="323.82538" x="-464.75394" fill="#005600"/>
 </g>

</svg>